<?xml version="1.0" encoding="UTF-8" standalone="no"?>
<!-- Created with Inkscape (http://www.inkscape.org/) -->

<svg
   width="22.74mm"
   height="22.74mm"
   viewBox="0 0 22.74 22.74"
   version="1.1"
   id="svg1"
   xmlns="http://www.w3.org/2000/svg"
   xmlns:svg="http://www.w3.org/2000/svg">
  <defs
     id="defs1" />
  <g
     id="layer1"
     transform="translate(-27,-18)">
    <path
       d="m 206.60694,146.49669 v 10.41066 h -17.57865 v -10.41066 z m -5.29066,10.41066 0.42667,-8.02133 q 7.50933,0 12.45866,1.62134 4.94933,1.62133 7.424,4.69333 2.55999,3.072 2.55999,7.59466 0,8.36267 -6.31466,12.45866 -6.31466,4.096 -18.00533,4.096 -1.96266,0 -4.69333,-0.17066 -2.73066,-0.17067 -5.54666,-0.68267 -2.816,-0.42667 -5.12,-1.28 -4.69333,-1.792 -4.69333,-6.22933 V 131.1367 q 0,-1.792 1.024,-2.73067 1.024,-1.024 2.64533,-1.62133 2.90133,-1.024 7.25333,-1.45067 4.43733,-0.512 8.96,-0.512 10.83733,0 16.72532,3.75467 5.97333,3.66933 5.97333,11.26399 0,4.26667 -2.64533,7.168 -2.56,2.816 -7.33866,4.26667 -4.77867,1.36533 -11.34933,1.36533 l -0.512,-6.144 q 3.66933,0 5.29067,-1.36533 1.70666,-1.36533 1.70666,-4.01067 0,-2.30399 -1.96266,-3.66933 -1.87734,-1.36533 -5.71734,-1.36533 -1.28,0 -2.98666,0.0853 -1.62133,0.0853 -2.56,0.256 v 30.89066 q 1.19467,0.34133 3.072,0.512 1.96266,0.0853 3.584,0.0853 3.41333,0 5.63199,-1.36533 2.304,-1.45067 2.304,-4.43733 0,-2.816 -1.96266,-4.01067 -1.87733,-1.19467 -5.632,-1.19467 z"
       id="text1"
       style="font-weight:800;font-size:85.3333px;font-family:'Baloo 2';-inkscape-font-specification:'Baloo 2 Ultra-Bold';white-space:pre;fill:#18cb6b;stroke-width:2.51339"
       transform="matrix(0.26458333,0,0,0.26458333,-20.57535,-11.025837)"
       aria-label="B" />
    <path
       d="m 45.089415,27.734744 v 2.754492 h -4.651027 v -2.754492 z m -1.399823,2.754492 0.112889,-2.122314 q 1.986846,0 3.296358,0.428978 1.309513,0.428979 1.964269,1.24178 0.677334,0.8128 0.677334,2.009424 0,2.212624 -1.670757,3.296359 -1.670757,1.083734 -4.763916,1.083734 -0.519289,0 -1.241779,-0.04516 -0.72249,-0.04516 -1.467557,-0.180623 -0.745068,-0.112889 -1.354668,-0.338667 -1.241779,-0.474134 -1.241779,-1.648179 V 23.67074 q 0,-0.474134 0.270933,-0.72249 0.270934,-0.270934 0.699912,-0.428978 0.767645,-0.270934 1.919113,-0.383823 1.174046,-0.135467 2.370669,-0.135467 2.867381,0 4.425249,0.993424 1.580446,0.970845 1.580446,2.980269 0,1.12889 -0.699911,1.896536 -0.677334,0.745067 -1.941691,1.12889 -1.264357,0.361244 -3.002848,0.361244 l -0.135467,-1.625601 q 0.970846,0 1.399824,-0.361245 0.451556,-0.361245 0.451556,-1.061157 0,-0.6096 -0.519289,-0.970845 -0.496712,-0.361245 -1.512713,-0.361245 -0.338667,0 -0.790223,0.02258 -0.428978,0.02258 -0.677334,0.06773 v 8.173164 q 0.316089,0.09031 0.812801,0.135467 0.519289,0.02258 0.948267,0.02258 0.903112,0 1.490135,-0.361245 0.609601,-0.383823 0.609601,-1.174046 0,-0.745067 -0.51929,-1.061156 -0.496711,-0.316089 -1.490134,-0.31609 z"
       id="text2"
       style="font-weight:800;font-size:22.5778px;font-family:'Baloo 2';-inkscape-font-specification:'Baloo 2 Ultra-Bold';fill:#18cb6b;stroke-width:0.165"
       aria-label="B" />
  </g>
</svg>
